<svg xmlns="http://www.w3.org/2000/svg" width="18" height="18" viewBox="0 0 18 18">
    <g fill="#0067C5" fill-rule="nonzero">
        <path d="M9 0C4.037 0 0 4.037 0 9s4.037 9 9 9 9-4.037 9-9-4.037-9-9-9zm0 17.217C4.469 17.217.783 13.531.783 9 .783 4.469 4.469.783 9 .783c4.531 0 8.217 3.686 8.217 8.217 0 4.531-3.686 8.217-8.217 8.217z"/>
        <path d="M13.783 8.696H9.478V4.39a.391.391 0 0 0-.782 0v4.305H4.39a.391.391 0 0 0 0 .782h4.305v4.305a.391.391 0 0 0 .782 0V9.478h4.305a.391.391 0 0 0 0-.782z"/>
    </g>
</svg>
