<svg width="16" height="16" viewBox="0 0 16 16" xmlns="http://www.w3.org/2000/svg"><title>CFEE8C5D-87DB-4C57-8F0B-1E77FFE01F97</title><g fill="#FFF" fill-rule="evenodd"><path d="M11.933 6.077c.043-.253.067-.514.067-.787C12 2.557 9.308.333 6 .333c-3.309 0-6 2.224-6 4.957C0 6.597.57 7.84 1.573 8.74L.377 10.835a.332.332 0 0 0 .29.498.352.352 0 0 0 .124-.023l3.226-1.291c.29.082.591.145.898.188.015 0 .043-.004.05.002.05 0 .213-.001.452-.015C5.87 7.85 8.24 6 11 6c.317 0 .627.03.933.077z"/><path d="M11 6.667C8.29 6.667 6 8.65 6 11c0 2.237 1.919 4.15 4.29 4.381a5.054 5.054 0 0 0 2.385-.356l2.542.954a.332.332 0 0 0 .414-.461c-.184-.369-.712-1.424-.882-1.767C15.55 13.026 16 12.08 16 11c0-2.349-2.29-4.333-5-4.333"/></g></svg>