<svg viewBox="0 0 18 17" xmlns="http://www.w3.org/2000/svg"><title>3DF4E51E-C299-4608-B1B8-F04639EFE82E</title><g stroke="#3E3832" fill="none" fill-rule="evenodd" stroke-linejoin="round"><path d="M5.828 10.61a6.253 6.253 0 0 1-1.002-.219l-3.478 1.392 1.391-2.435C1.644 8.472 1 7.174 1 5.825 1 3.161 3.647 1 6.913 1c3.265 0 5.913 2.16 5.913 4.825"/><path d="M7.26 11.435c0 2.983 3.48 5.217 6.61 3.826l2.782 1.043-1.043-2.087c.901-.721 1.391-1.67 1.391-2.782 0-2.194-2.18-4.174-4.87-4.174-2.689 0-4.87 1.98-4.87 4.174z"/></g></svg>
