<svg width="16" height="14" viewBox="0 0 16 14" xmlns="http://www.w3.org/2000/svg"><title>CF31CD56-B4F2-450A-A1FE-D595C6FC4CDF</title><g fill="#FFF" fill-rule="evenodd"><path d="M13.774 1.882A6.948 6.948 0 0 0 8.756.005C6.809.073 4.949.982 3.654 2.498A7.044 7.044 0 0 0 2.06 5.874l-.834-1.258a.666.666 0 1 0-1.11.738l1.993 3.004c.239.377.815.398 1.09.032l2.304-2.623a.666.666 0 1 0-1.001-.88L3.365 6.18a5.725 5.725 0 0 1 1.302-2.816c1.054-1.233 2.56-1.971 4.135-2.026a5.619 5.619 0 0 1 4.062 1.519 5.63 5.63 0 0 1 1.798 3.947 5.63 5.63 0 0 1-1.518 4.062 5.632 5.632 0 0 1-3.947 1.798.666.666 0 0 0 .024 1.333h.023a6.954 6.954 0 0 0 4.875-2.221 6.953 6.953 0 0 0 1.877-5.02 6.959 6.959 0 0 0-2.222-4.874"/><path d="M8.668 2.996a.667.667 0 0 0-.666.667V8h4.33a.667.667 0 0 0 0-1.334H9.335V3.663a.667.667 0 0 0-.667-.667"/></g></svg>