<svg width="40" height="40" viewBox="0 0 40 40" xmlns="http://www.w3.org/2000/svg"><title>9BA09280-8E16-4257-B070-0DB6B3AEF7F6</title><g fill="none" fill-rule="evenodd"><path d="M0 19.785C0 30.695 8.874 39.57 19.785 39.57c10.906 0 19.785-8.874 19.785-19.785C39.57 8.877 30.69 0 19.785 0 8.874 0 0 8.877 0 19.785z" fill="#3E3832"/><path d="M12.251 19.93a.866.866 0 0 1 0-1.218l9.463-9.46a.86.86 0 0 1 1.216 1.216l-7.995 7.995-.788.824.788.896 7.995 7.993a.86.86 0 0 1-1.216 1.216L12.25 19.93z" fill="#FFF"/></g></svg>
