<svg width="40" height="40" viewBox="0 0 40 40" xmlns="http://www.w3.org/2000/svg"><title>24C12677-F17F-4465-B6B4-99684FBF6475</title><g fill="none" fill-rule="evenodd"><path d="M12.251 19.93a.866.866 0 0 1 0-1.218l9.463-9.46a.86.86 0 0 1 1.216 1.216l-7.995 7.995-.788.824.788.896 7.995 7.993a.86.86 0 0 1-1.216 1.216L12.25 19.93z" fill="#3E3832"/><path d="M19.785 0C8.874 0 0 8.877 0 19.785 0 30.695 8.874 39.57 19.785 39.57c10.906 0 19.785-8.874 19.785-19.785C39.57 8.877 30.69 0 19.785 0" stroke="#3E3832" stroke-width="2"/></g></svg>