<?xml version="1.0" encoding="UTF-8"?>
<svg width="42px" height="42px" viewBox="0 0 42 42" version="1.1" xmlns="http://www.w3.org/2000/svg" xmlns:xlink="http://www.w3.org/1999/xlink">
    <!-- Generator: Sketch 42 (36781) - http://www.bohemiancoding.com/sketch -->
    <title>Pil_Venstre_Regular</title>
    <desc>Created with Sketch.</desc>
    <defs></defs>
    <g id="Design-Bruker-innlogget" stroke="none" stroke-width="1" fill="none" fill-rule="evenodd">
        <g id="FO_Aktivitetsplan_styleguide" transform="translate(-130.000000, -10266.000000)">
            <g id="Pil_Venstre_Regular" transform="translate(131.000000, 10267.000000)">
                <path d="M0,20 C0,31.0295652 8.97043478,40 20,40 C31.0243478,40 40,31.0295652 40,20 C40,8.97391304 31.0243478,0 20,0 C8.97043478,0 0,8.97391304 0,20 Z" id="Path" stroke="#3E3832" stroke-width="2"></path>
                <path d="M18.6481103,25.6467353 C18.4647694,25.824576 18.2337597,25.9144131 18.0009167,25.9144131 C17.7460728,25.9144131 17.5132297,25.8099087 17.3500563,25.6467353 L7.26813617,15.5629818 C6.91062128,15.2054669 6.91062128,14.624276 7.26813617,14.2667611 C7.62565107,13.9110796 8.20684195,13.9110796 8.56435685,14.2667611 L17.0842118,22.7866161 L17.9625934,23.6265269 L18.9176216,22.7866161 L27.4356432,14.2667611 C27.793158,13.9110796 28.3743489,13.9110796 28.7318638,14.2667611 C29.0893787,14.624276 29.0893787,15.2054669 28.7318638,15.5629818" id="Fill-192" fill="#3E3832" transform="translate(18.000000, 19.957207) rotate(-270.000000) translate(-18.000000, -19.957207) "></path>
            </g>
        </g>
    </g>
</svg>
