<svg xmlns="http://www.w3.org/2000/svg" width="32" height="32" viewBox="0 0 32 32"><path fill="#C86151" fill-rule="evenodd" d="M16 0C7.164 0 0 7.163 0 16c0 8.836 7.163 16 16 16s16-7.163 16-16c0-8.836-7.164-16-16-16zm-.001 3.974a1.938 1.938 0 1 1 0 3.876 1.938 1.938 0 0 1 0-3.875zm5.902 13.881a.93.93 0 0 1-1.102-.501l-1.482-4.817a.442.442 0 1 0-.864.191c-.007.008 2.191 7.19 2.528 8.29h-2.412v5.903a1.102 1.102 0 1 1-2.205 0v-5.904h-.728v5.905a1.103 1.103 0 0 1-2.206 0v-5.904h-2.412c.336-1.1 2.535-8.281 2.529-8.29a.442.442 0 0 0-.305-.489.448.448 0 0 0-.559.298L11.2 17.355a.93.93 0 0 1-1.102.5.932.932 0 0 1-.606-1.171s2.057-6.508 2.08-6.554c.56-1.748 1.973-1.743 3.272-1.746h2.311c1.3.003 2.711-.002 3.271 1.746.024.047 2.08 6.554 2.08 6.554a.931.931 0 0 1-.605 1.171z"/></svg>
