<svg xmlns="http://www.w3.org/2000/svg" xmlns:xlink="http://www.w3.org/1999/xlink" width="32" height="32" viewBox="0 0 32 32"><defs><path id="a" d="M16 0C7.164 0 0 7.164 0 16s7.163 16 16 16 16-7.163 16-16c0-8.836-7.164-16-16-16zm0 3.974a1.938 1.938 0 1 1 0 3.876 1.938 1.938 0 0 1 0-3.875zm5.047 7.791v5.4c0 .435-.389.787-.867.787-.48 0-.869-.352-.869-.788V12.69a.365.365 0 1 0-.731-.025c-.002.01-.01.016-.01.026v14.233a1.102 1.102 0 1 1-2.206 0V17.9a.365.365 0 0 0-.729 0v9.022a1.103 1.103 0 0 1-2.205 0V12.69c0-.01-.008-.017-.01-.025a.365.365 0 0 0-.732.024v4.476c0 .435-.388.787-.868.787-.479 0-.867-.352-.867-.787v-5.748c0-1.694 1.805-2.928 3.476-3.021l1.204-.008v-.005l.367.003.369-.002v.004l1.204.008c1.67.093 3.474 1.328 3.474 3.02v.35z"/></defs><g fill="none" fill-rule="evenodd"><use fill="#FFF" xlink:href="#a"/><use fill="#3385D1" xlink:href="#a"/></g></svg>