<svg width="22" height="22" viewBox="0 0 22 22" xmlns="http://www.w3.org/2000/svg"><title>03CFF549-071F-4B63-8892-BB6CA4B94252</title><g stroke="#3E3832" fill="none" fill-rule="evenodd" stroke-linecap="round" stroke-linejoin="round"><path d="M17.878 12.25h2.705v-2.5h-2.706c-.174-.723-.459-1.817-.835-2.435l1.913-1.913-2.358-2.357-1.914 1.913c-.616-.375-1.71-.66-2.433-.835V1.417h-2.5v2.706c-.723.175-1.818.46-2.434.835L5.402 3.045 3.044 5.403l1.914 1.913c-.376.617-.661 1.712-.836 2.434H1.417v2.5h2.705c.175.723.46 1.818.836 2.434l-1.914 1.914 2.358 2.357 1.913-1.915c.617.378 1.712.663 2.435.838v2.705h2.5v-2.705c.722-.175 1.817-.46 2.433-.836l1.915 1.913 2.357-2.357-1.913-1.914c.376-.616.661-1.711.836-2.434z"/><path d="M11 14.75a3.75 3.75 0 1 1 0-7.5 3.75 3.75 0 0 1 0 7.5z"/></g></svg>
