<svg width="20" height="20" viewBox="0 0 20 20" xmlns="http://www.w3.org/2000/svg"><title>50FD7B22-1B77-4CF5-B919-2416A6A5FE90</title><path d="M10 13.333A3.337 3.337 0 0 1 6.667 10 3.337 3.337 0 0 1 10 6.667 3.337 3.337 0 0 1 13.333 10 3.337 3.337 0 0 1 10 13.333m9.583-5h-2.379c-.166-.658-.378-1.389-.648-1.943l1.693-1.693a.416.416 0 0 0 0-.59l-2.357-2.355a.414.414 0 0 0-.59 0L13.61 3.444c-.554-.27-1.285-.482-1.942-.647V.417A.417.417 0 0 0 11.25 0h-2.5a.417.417 0 0 0-.417.417v2.38c-.658.165-1.389.377-1.942.647L4.697 1.752a.414.414 0 0 0-.59 0L1.75 4.108a.417.417 0 0 0 0 .589L3.444 6.39c-.269.552-.482 1.283-.649 1.942H.417A.417.417 0 0 0 0 8.75v2.5c0 .23.187.417.417.417h2.378c.167.659.38 1.39.65 1.943L1.75 15.304a.414.414 0 0 0 0 .588l2.357 2.357a.428.428 0 0 0 .59 0l1.694-1.693c.551.269 1.283.48 1.942.649v2.378c0 .23.187.417.417.417h2.5c.23 0 .417-.187.417-.417v-2.378c.659-.168 1.39-.38 1.942-.65l1.694 1.694a.415.415 0 0 0 .59 0l2.356-2.356a.414.414 0 0 0 0-.589l-1.693-1.694c.269-.553.482-1.284.648-1.943h2.38c.23 0 .416-.187.416-.417v-2.5a.417.417 0 0 0-.417-.417" fill="#0067C5" fill-rule="evenodd"/></svg>