<svg
    tabIndex="-1"
    id="Layer_1"
    className="mittmal__illustrasjon"
    data-name="Layer 1"
    xmlns="http://www.w3.org/2000/svg"
    viewBox="0 0 260 260"
>
    <path
        fill="#fff"
        d="M259,130a129.06,129.06,0,0,1-92.62,123.8V212.32h-2.44l-.31-71.22s0,0,0-.08l18.93-40.28c1.43-3-.24-6.86-3.74-8.5s-7.5-.51-8.93,2.54l-18.09,38.5-1.15-.69,12.59-55.24a7,7,0,0,0-13.65-3.11l-10.9,47.81V62.87a7,7,0,0,0-14,0v54c-4.53-3.22-18.14-12.68-21.49-12.68-3.73,0-20.11,12.24-20.27,12.37-2.06,1.72-3.45,8.22.13,11.8,4,4,12.09,0,12.09,0l7.31-3.66a1.25,1.25,0,0,1,1.38.19c3.68,3.31,21.56,20.77,3.39,31.67-6.85,4.57-12.4,1.37-15.93-2.26l-4.69-18c-.75-3.28-4.75-5.17-8.94-4.21s-7,4.4-6.22,7.68l6.62,22.82a9.3,9.3,0,0,0,1.4,3c1.91,4.08,10.29,19.7,27.76,23.19,1.87.38,9.14,5.48,10.6,10.95a1.39,1.39,0,0,1,0,.35v12.28H104.1V256.4A129,129,0,1,1,259,130Z"
    />
    <polygon fill="#e6e5e2" points="138.68 122.05 138.68 125.4 138.01 125 138.68 122.05" />
    <polygon fill="#e6e5e2" points="151.79 133.28 149.24 138.72 150.64 132.59 151.79 133.28" />
    <path
        fill="#e6e5e2"
        d="M182.55,100.74,163.62,141s0,0,0,.08l.31,71.22H117.86V200a1.39,1.39,0,0,0,0-.35c-1.46-5.47-8.73-10.57-10.6-10.95-17.47-3.49-25.85-19.11-27.76-23.19a9.3,9.3,0,0,1-1.4-3l-6.62-22.82c-.75-3.28,2-6.72,6.22-7.68s8.19.93,8.94,4.21l4.69,18c3.53,3.63,9.08,6.83,15.93,2.26,18.17-10.9.29-28.36-3.39-31.67a1.25,1.25,0,0,0-1.38-.19l-7.31,3.66s-8.06,4-12.09,0c-3.58-3.58-2.19-10.08-.13-11.8.16-.13,16.54-12.37,20.27-12.37,3.35,0,17,9.46,21.49,12.68V62.87a7,7,0,0,1,14,0v59.18l-.67,3,.67.4v-3.35l10.9-47.81a7,7,0,0,1,13.65,3.11l-12.59,55.24-1.4,6.13,2.55-5.44,18.09-38.5c1.43-3,5.43-4.18,8.93-2.54S184,97.69,182.55,100.74Z"
    />
    <path fill="#6ab889" d="M104.1,231.12V256.4a129.9,129.9,0,0,0,62.28-2.61V231.12Z" />
    <rect fill="#cde7d8" x="104.1" y="212.32" width="13.76" />
    <rect fill="#cde7d8" x="163.94" y="212.32" width="2.43" />
    <path
        fill="#cde7d8"
        d="M166.38,212.32h-2.44v.56a1.24,1.24,0,0,1-1.16,1.24c-5.2.35-26.89,1.63-43.81,0a1.24,1.24,0,0,1-1.12-1.24v-.59H104.1v18.8h62.28Zm-10.45,13.49a4,4,0,1,1,3.95-3.95A4,4,0,0,1,155.93,225.81Z"
    />
    <path
        fill="#cde7d8"
        d="M164,212.88a1.25,1.25,0,0,1-1.16,1.25c-5.2.34-26.89,1.62-43.81,0a1.24,1.24,0,0,1-1.12-1.24v-.6h46.08Z"
    />
    <path fill="#2f3137" d="M155.93,217.9a4,4,0,1,0,3.95,4A4,4,0,0,0,155.93,217.9Z" />
    <path
        fill="#ffd7a3"
        d="M88.69,81.7l-6.75-5.31a1.1,1.1,0,0,1-.42-1l.55-8.56a1.13,1.13,0,0,0-1.76-1l-7.13,4.77a1.1,1.1,0,0,1-1,.11l-8-3.17a1.13,1.13,0,0,0-1.5,1.36L65,77.18a1.12,1.12,0,0,1-.22,1l-5.48,6.61a1.13,1.13,0,0,0,.83,1.85l8.57.33a1.13,1.13,0,0,1,.92.52l4.58,7.26a1.13,1.13,0,0,0,2-.22l3-8a1.12,1.12,0,0,1,.78-.7l8.32-2.13A1.13,1.13,0,0,0,88.69,81.7Z"
    />
    <path
        fill="#ffe5c2"
        d="M108.34,84.43l.62-3.52a.47.47,0,0,1,.27-.34l3.25-1.48a.48.48,0,0,0,0-.85l-3.16-1.68a.48.48,0,0,1-.24-.36l-.41-3.55a.47.47,0,0,0-.79-.29l-2.57,2.49a.49.49,0,0,1-.42.12l-3.51-.72a.47.47,0,0,0-.51.67l1.56,3.22a.47.47,0,0,1,0,.43l-1.76,3.11a.47.47,0,0,0,.47.7l3.54-.49a.5.5,0,0,1,.42.14l2.41,2.64A.47.47,0,0,0,108.34,84.43Z"
    />
    <path
        fill="#ffe5c2"
        d="M41.9,86.56,41.43,83a.49.49,0,0,1,.15-.41l2.65-2.39a.48.48,0,0,0-.23-.82l-3.52-.64a.47.47,0,0,1-.34-.27l-1.46-3.26a.47.47,0,0,0-.84,0l-1.7,3.15a.45.45,0,0,1-.37.24L32.22,79a.48.48,0,0,0-.29.8l2.46,2.59a.46.46,0,0,1,.12.42l-.73,3.49a.47.47,0,0,0,.66.53l3.22-1.55a.46.46,0,0,1,.44,0L41.2,87A.47.47,0,0,0,41.9,86.56Z"
    />
    <path
        fill="#ffe5c2"
        d="M57.47,122l1.62-3.18a.47.47,0,0,1,.36-.26l3.54-.46a.47.47,0,0,0,.27-.8l-2.53-2.53a.5.5,0,0,1-.13-.42l.65-3.51a.47.47,0,0,0-.67-.51L57.39,112a.49.49,0,0,1-.44,0l-3.14-1.71a.48.48,0,0,0-.69.49l.56,3.53a.47.47,0,0,1-.14.42L51,117.17a.47.47,0,0,0,.25.8l3.53.56a.5.5,0,0,1,.35.27L56.62,122A.48.48,0,0,0,57.47,122Z"
    />
</svg>
