<svg width="125" height="125" viewBox="0 0 125 125" xmlns="http://www.w3.org/2000/svg"><title>62099F92-5DC5-4512-A966-1526EAE3B342</title><g fill="none" fill-rule="evenodd"><path d="M125 62.5c0 34.518-27.982 62.501-62.501 62.501C27.98 125.001 0 97.018 0 62.5 0 27.983 27.98 0 62.499 0 97.018 0 125 27.983 125 62.5z" fill="#B1CAC9"/><path d="M35 39.265V94.11a3.54 3.54 0 0 0 3.541 3.539h47.411a3.539 3.539 0 0 0 3.539-3.54V31.14a3.54 3.54 0 0 0-3.539-3.54H47.323L35 39.265z" fill="#E9E9E3"/><path d="M47.323 27.6v8.124a3.54 3.54 0 0 1-3.54 3.541H35L47.323 27.6z" fill="#C0C0BE"/><path d="M53.311 76.016l3.829-.55c.394 1.833 1.022 3.12 1.882 3.86.86.74 2.03 1.11 3.51 1.11 1.44 0 2.564-.366 3.374-1.1.811-.733 1.217-1.593 1.217-2.58 0-.719-.254-1.382-.762-1.988-.874-1.058-3.271-2.785-7.191-5.182-2.087-1.283-3.543-2.288-4.368-3.014a8.988 8.988 0 0 1-2.02-2.57A6.523 6.523 0 0 1 52 60.914c0-1.353.423-2.58 1.269-3.68.846-1.1 2.01-1.868 3.49-2.305-1.001-.959-1.706-1.844-2.115-2.655a5.675 5.675 0 0 1-.614-2.59c0-1.805.705-3.37 2.115-4.696C57.555 43.663 59.424 43 61.75 43c2.637 0 4.696.627 6.176 1.882 1.48 1.255 2.37 3.074 2.665 5.457l-3.955.402c-.296-1.72-.814-2.919-1.554-3.596-.74-.676-1.738-1.015-2.993-1.015-1.297 0-2.344.35-3.141 1.047-.797.698-1.195 1.47-1.195 2.316 0 .733.254 1.41.761 2.03.79.96 2.947 2.51 6.472 4.654 2.214 1.353 3.709 2.347 4.484 2.982 1.001.846 1.738 1.72 2.21 2.623.473.902.709 1.882.709 2.94 0 1.593-.515 2.954-1.544 4.082-.592.648-1.678 1.304-3.257 1.967 1.128.86 1.97 1.783 2.527 2.77.557.987.836 2.045.836 3.173 0 1.24-.353 2.414-1.058 3.521-.705 1.107-1.72 1.953-3.045 2.538-1.326.586-2.757.878-4.294.878-2.693 0-4.83-.673-6.409-2.02-1.579-1.346-2.523-3.218-2.834-5.615zm12.373-6.641c1.044-.536 1.823-1.16 2.337-1.872.515-.712.772-1.407.772-2.084 0-.803-.366-1.65-1.1-2.538-.747-.888-2.333-2.08-4.758-3.574-1.932-1.184-3.37-2.157-4.315-2.919-1.142.649-1.956 1.297-2.443 1.946a3.511 3.511 0 0 0-.73 2.157c0 .889.325 1.735.973 2.538.65.804 2.108 1.876 4.379 3.215 1.889 1.114 3.518 2.158 4.885 3.13z" fill="#505557"/></g></svg>