<svg width="45px" height="45px" viewBox="0 0 45 45" version="1.1" xmlns="http://www.w3.org/2000/svg" xmlns:xlink="http://www.w3.org/1999/xlink">
    <defs>
        <polygon id="path-1" points="0.9689 -0.0002 10.9689 -0.0002 10.9689 11.9996 0.9689 11.9996"></polygon>
        <polygon id="path-3" points="-4 12.203 -4 20.3588 15.946 20.3588 15.946 12.203 -4 12.203"></polygon>
    </defs>
    <g id="Page-1" stroke="none" stroke-width="1" fill="none" fill-rule="evenodd">
        <g id="Artboard">
            <g id="Ikon">
                <g id="Oval-shape" fill="#E28386">
                    <circle id="Oval-3-Copy-11" cx="22.5" cy="22.5" r="22.5"></circle>
                </g>
                <g id="Symbol" transform="translate(17.000000, 12.000000)">
                    <mask id="mask-2" fill="white">
                        <use xlink:href="#path-1"></use>
                    </mask>
                    <g id="Clip-2"></g>
                    <path d="M3.8539,11.4286 C4.4899,11.8036 5.2079,11.9996 5.9689,11.9996 C6.7499,11.9996 7.4899,11.7826 8.1359,11.3976 C9.8119,10.4416 10.9689,8.3846 10.9689,6.0056 C10.9689,2.6916 8.7289,-0.0004 5.9689,-0.0004 C3.2079,-0.0004 0.9689,2.6916 0.9689,6.0056 C0.9689,8.4056 2.1459,10.4836 3.8539,11.4286" id="Fill-1" fill="#FFFFFF" mask="url(#mask-2)"></path>
                    <mask id="mask-4" fill="white">
                        <use xlink:href="#path-3"></use>
                    </mask>
                    <g id="Clip-5"></g>
                    <path d="M14.0997,15.469 C13.0537,14.845 11.5077,14.278 9.7417,13.645 C9.3187,13.491 8.8867,13.338 8.4547,13.174 L8.4707,12.203 C7.7127,12.654 6.8487,12.894 5.9847,12.894 C5.1207,12.894 4.2757,12.663 3.5657,12.241 L3.5497,13.174 C3.1077,13.338 2.6567,13.501 2.2057,13.664 C0.5927,14.24 -1.0583,14.835 -2.1533,15.488 C-3.9133,16.337 -4.0003,20.359 -4.0003,20.359 L-3.3753,20.359 L14.0687,20.359 L14.0997,20.359 L15.9467,20.359 C15.9467,20.359 15.8597,16.318 14.0997,15.469" id="Fill-4" fill="#FFFFFF" mask="url(#mask-4)"></path>
                </g>
            </g>
        </g>
    </g>
</svg>
