<svg width="292" height="160" viewBox="0 0 292 160" xmlns="http://www.w3.org/2000/svg" xmlns:xlink="http://www.w3.org/1999/xlink">
    <title>
        Illustrasjon_Aktivitetsplan
    </title>
    <defs>
        <path id="a" d="M121.153 14.066V.016H0v14.05h121.153z"/>
        <path id="c" d="M60.576.247H0V67.4h121.153V.247H60.576z"/>
        <path id="e" d="M0 94.753h121.153V1.105H0z"/>
    </defs>
    <g fill="none" fill-rule="evenodd">
        <path fill="#FFF" d="M198.854 107.842h92.32V13.1h-92.32z"/>
        <path d="M209.613 20.256a3.583 3.583 0 0 1-3.587 3.58 3.581 3.581 0 0 1 0-7.16 3.583 3.583 0 0 1 3.587 3.58zM289.1 20.256a3.583 3.583 0 0 1-3.586 3.58 3.584 3.584 0 0 1-3.585-3.58 3.583 3.583 0 0 1 3.585-3.58 3.582 3.582 0 0 1 3.587 3.58" fill="#8B8B8B"/>
        <path d="M239.097 82.828c3.237.625-22.667-.447-26.238 0-3.574.446-1.922-22.403-1.922-22.403h26.24s-1.318 21.776 1.92 22.403" fill="#ECC45B"/>
        <path d="M237.436 79.095H210.99c.34 2.312.919 3.851 1.87 3.733 3.572-.447 29.474.625 26.238 0-.806-.156-1.328-1.618-1.66-3.733" fill="#E0B653"/>
        <path d="M277.921 68.482c3.237.626-22.665-.446-26.236 0-3.575.446-1.922-22.404-1.922-22.404h26.239s-1.318 21.779 1.92 22.404" fill="#ECC45B"/>
        <path d="M276.26 64.749h-26.447c.34 2.312.92 3.851 1.872 3.733 3.571-.446 29.475.624 26.236 0-.805-.156-1.328-1.62-1.66-3.733" fill="#E0B653"/>
        <path d="M246.087 46.432c3.24.626-22.665-.446-26.237 0-3.574.448-1.92-22.404-1.92-22.404h26.238s-1.32 21.78 1.92 22.404" fill="#ECC45B"/>
        <path d="M244.427 42.7H217.98c.34 2.312.919 3.85 1.87 3.732 3.573-.444 29.475.626 26.238 0-.807-.155-1.328-1.618-1.661-3.731" fill="#E0B653"/>
        <path d="M204.655 149.872c-6.855 0-12.564 3.865-13.595 8.87h27.187c-1.028-5.005-6.739-8.87-13.592-8.87" fill="#36363A"/>
        <path d="M231.083 147.02l7.525-.514a1.147 1.147 0 0 1 1.224 1.065l.3 4.373a1.15 1.15 0 0 1-1.067 1.223l-7.525.512a1.146 1.146 0 0 1-1.224-1.067l-.302-4.37a1.15 1.15 0 0 1 1.069-1.223" fill="#C3232A"/>
        <path fill="#E6D6BB" d="M232.915 103.08l-4.985-8.129-2.38 9.23 3.984.443z"/>
        <path fill="#ECC45B" d="M237.132 147.87l2.454-.368-6.558-43.684-2.456.37z"/>
        <path fill="#E0B653" d="M228.117 104.553l6.559 43.685 2.456-.368-6.56-43.685z"/>
        <path fill="#ECC45B" d="M234.676 148.237l-6.56-43.684-2.454.368 6.56 43.684zM232.034 102.675c-.462.068-.684.702-1.303.792a.66.66 0 0 1-.268-.009l.11.727 2.454-.366-.1-.678s-.43-.538-.893-.466"/>
        <path d="M230.463 103.458c-.425-.093-.668-.545-1.323-.445-.652.097-.754.6-1.131.813l.107.727 2.457-.366-.11-.729z" fill="#E0B653"/>
        <path d="M228.008 103.826a.724.724 0 0 1-.254.088c-.618.091-1.014-.447-1.48-.377-.463.068-.713.704-.713.704l.1.68 2.455-.368-.108-.727z" fill="#ECC45B"/>
        <path fill="#5D5E5C" d="M227.93 94.951l-.842 3.268 2.607-.393zM230.036 148.542l9.816-.672.092 1.333-9.816.668z"/>
        <path d="M247.112 129.227l7.348 1.703c.619.142 1.003.758.859 1.373l-.99 4.27c-.144.616-.759 1-1.377.856l-7.35-1.7a1.142 1.142 0 0 1-.856-1.375l.99-4.268c.143-.615.757-1 1.376-.859" fill="#C3232A"/>
        <path fill="#E6D6BB" d="M261.706 87.731l-2.394-9.224-4.973 8.135 3.678 1.584z"/>
        <path fill="#52808D" d="M252.65 131.803l2.453.365 6.493-43.695-2.457-.366z"/>
        <path fill="#0E546F" d="M256.682 87.746l-6.489 43.695 2.456.362 6.49-43.695z"/>
        <path fill="#52808D" d="M250.193 131.44l6.491-43.696-2.457-.362-6.488 43.697zM260.98 87.09c-.463-.069-.86.47-1.476.38a.669.669 0 0 1-.256-.09l-.109.727 2.455.366.101-.68s-.252-.634-.715-.702"/>
        <path d="M259.248 87.382c-.38-.214-.48-.715-1.134-.812-.654-.097-.897.354-1.32.448l-.111.729 2.456.363.109-.728z" fill="#0E546F"/>
        <path d="M256.791 87.019a.681.681 0 0 1-.27.009c-.617-.093-.837-.723-1.3-.791-.467-.068-.892.467-.892.467l-.102.676 2.457.366.107-.727z" fill="#52808D"/>
        <path fill="#5D5E5C" d="M259.312 78.506l-1.76 2.878 2.607.387zM245.665 130.38l9.587 2.217-.301 1.301-9.585-2.217z"/>
        <path fill="#E6D6BB" d="M249.51 111.444l-3.334-8.93-4.107 8.605 3.824 1.195z"/>
        <path fill="#9DAA39" d="M246.064 134.51l2.48.108.933-22.427-2.479-.11z"/>
        <path fill="#798034" d="M244.516 111.974l-.933 22.426 2.478.11.937-22.426z"/>
        <path fill="#9DAA39" d="M243.585 134.4l.932-22.426-2.48-.11-.934 22.426zM248.722 110.879c-.467-.022-.805.557-1.43.53a.723.723 0 0 1-.264-.061l-.03.734 2.48.109.03-.686s-.318-.604-.786-.626"/>
        <path d="M247.029 111.348c-.399-.173-.551-.659-1.213-.692-.659-.026-.854.446-1.268.584l-.031.734 2.479.11.033-.736z" fill="#798034"/>
        <path d="M244.549 111.24a.72.72 0 0 1-.267.037c-.624-.029-.91-.633-1.378-.652-.468-.022-.838.554-.838.554l-.029.685 2.48.11.032-.735z" fill="#9DAA39"/>
        <path fill="#5D5E5C" d="M246.176 102.514l-1.454 3.044 2.632.117z"/>
        <path fill="#C3232A" d="M257.483 123.925h-33.859l4.06 34.847h25.739z"/>
        <g>
            <path fill="#B0C9C8" d="M8.177 108.156h96.036V0H8.177z"/>
            <path fill="#828687" d="M0 116.884h112.396v-8.662H0zM4.588 108.156h3.59V0h-3.59zM104.213 108.156h3.591V0h-3.591z"/>
            <path fill="#DEDED9" d="M0 9.915h112.396V1.374H0zM0 20.071h112.396v-8.539H0zM0 30.228h112.396V21.69H0z"/>
            <path fill="#97B4B3" d="M70.935 108.156h33.278V63.447H70.935z"/>
            <path fill="#97B4B3" d="M32.534 108.156h42.701V73.622H32.534z"/>
            <path fill="#97B4B3" d="M59.399 108.156h23.077V43.31H59.399zM8.177 108.156h9.739V59.558H8.177zM17.916 108.156h14.616V84.822H17.916z"/>
            <path fill="#FEFEFE" d="M38.171 88.182h4.898v-4.754h-4.898zM46.932 88.182h4.894v-4.754h-4.894zM55.697 88.182h4.892v-4.754h-4.892zM64.453 88.182h4.898v-4.754h-4.898zM38.171 97.168h4.898V92.41h-4.898zM46.932 97.168h4.894V92.41h-4.894zM55.697 97.168h4.892V92.41h-4.892zM64.453 97.168h4.898V92.41h-4.898z"/>
        </g>
        <g transform="translate(65 65)">
            <g transform="translate(0 68.241)">
                <mask id="b" fill="#fff">
                    <use xlink:href="#a"/>
                </mask>
                <path d="M121.153.017v10.172a3.884 3.884 0 0 1-3.892 3.877H3.891A3.884 3.884 0 0 1 0 10.189V.017h121.152z" fill="#ABB2BA" mask="url(#b)"/>
            </g>
            <g transform="translate(0 .857)">
                <mask id="d" fill="#fff">
                    <use xlink:href="#c"/>
                </mask>
                <path d="M0 67.4V4.124A3.884 3.884 0 0 1 3.892.247h113.37a3.884 3.884 0 0 1 3.89 3.877V67.4H0z" fill="#4F6472" mask="url(#d)"/>
            </g>
            <path d="M3.903 64.409V6.829c0-1.093.89-1.98 1.99-1.98H115.26c1.1 0 1.99.887 1.99 1.98v57.58H3.902z" fill="#617281"/>
            <mask id="f" fill="#fff">
                <use xlink:href="#e"/>
            </mask>
            <path fill="#ABB2BA" mask="url(#f)" d="M46.376 92.828h28.403v-10.52H46.376z"/>
            <path fill="#ABB2BA" mask="url(#f)" d="M35.422 94.753h50.31v-3.408h-50.31z"/>
            <path d="M61.495 76.197a.917.917 0 0 1-1.836 0c0-.505.41-.915.918-.915.506 0 .918.41.918.915" fill="#959BA4" mask="url(#f)"/>
        </g>
    </g>
</svg>
