<?xml version="1.0" encoding="UTF-8" standalone="no"?>
<svg width="15px" height="20px" viewBox="0 0 15 20" version="1.1" xmlns="http://www.w3.org/2000/svg" xmlns:xlink="http://www.w3.org/1999/xlink">
    <g stroke="none" stroke-width="1" fill="none" fill-rule="evenodd">
        <g id="hengelas_active" fill-rule="nonzero" fill="#005C84">
            <path d="M14.583,7.5 L12.5,7.5 L12.5,5 C12.5,2.243 10.258,0 7.5,0 C4.742,0 2.5,2.243 2.5,5 L2.5,7.5 L0.417,7.5 C0.186697259,7.5 2.82039514e-17,7.68669726 0,7.917 L0,19.583 C0,19.813 0.187,20 0.417,20 L14.583,20 C14.813,20 15,19.813 15,19.583 L15,7.917 C15,7.68669726 14.8133027,7.5 14.583,7.5 Z M3.333,5 C3.33520509,2.69954344 5.19954344,0.835205088 7.5,0.833 C9.80045656,0.835205088 11.6647949,2.69954344 11.667,5 L11.667,7.5 L3.333,7.5 L3.333,5 Z M7.5,11.667 L7.5,11.667 C7.95982476,11.667551 8.33244898,12.0401752 8.333,12.5 C8.32927124,12.7924329 8.1710008,13.0610361 7.917,13.206 L7.917,15.416 C7.917,15.6463027 7.73030274,15.833 7.5,15.833 C7.26969726,15.833 7.083,15.6463027 7.083,15.416 L7.083,13.206 C6.839,13.06 6.667,12.804 6.667,12.5 C6.66755102,12.0401752 7.04017524,11.667551 7.5,11.667 Z" id="Shape"></path>
        </g>
    </g>
</svg>
