<?xml version="1.0" encoding="UTF-8" standalone="no"?>
<svg width="17px" height="22px" viewBox="0 0 17 22" version="1.1" xmlns="http://www.w3.org/2000/svg" xmlns:xlink="http://www.w3.org/1999/xlink">
    <g stroke="none" stroke-width="1" fill="none" fill-rule="evenodd" stroke-linejoin="round">
        <g id="l-sikon" transform="translate(1.000000, 1.000000)" stroke="#3E3832">
            <path d="M14.583,7.917 L0.417,7.917 L0.417,19.583 L14.583,19.583 L14.583,7.917 Z M2.917,5 C2.917,2.46887899 4.96887899,0.417 7.5,0.417 C10.031121,0.417 12.083,2.46887899 12.083,5 L12.083,7.917 L2.917,7.917 L2.917,5 Z M7.917,12.5 C7.91672386,12.7305789 7.72957888,12.9172761 7.499,12.917 C7.26842112,12.9167239 7.08172386,12.7295789 7.082,12.499 C7.08217863,12.3498416 7.16191875,12.2121089 7.29118301,12.1376844 C7.42044728,12.0632599 7.57959738,12.0634505 7.70868301,12.1381844 C7.83776865,12.2129183 7.91717863,12.3508416 7.917,12.5 Z M7.5,12.917 L7.5,15.417 L7.5,12.917 Z" id="Shape"></path>
        </g>
    </g>
</svg>
