<svg width="96" height="96" viewBox="0 0 96 96" fill="none" xmlns="http://www.w3.org/2000/svg">
<g clip-path="url(#clip0_5085_99244)">
<path fill-rule="evenodd" clip-rule="evenodd" d="M46 0H50V12H46V0ZM46 84H50V96H46V84ZM12 50V46H0V50H12ZM96 46V50H84V46H96ZM35.1846 81.7012L31.5304 80.0742L26.6496 91.0368L30.3037 92.6637L35.1846 81.7012ZM65.6963 3.33643L69.3505 4.96337L64.4696 15.9259L60.8154 14.299L65.6963 3.33643ZM23.4931 74.4462L20.7145 71.5688L12.0824 79.9047L14.861 82.7821L23.4931 74.4462ZM81.139 13.2178L83.9177 16.0951L75.2856 24.431L72.507 21.5537L81.139 13.2178ZM15.3706 63.3401L13.8722 59.6313L2.74599 64.1266L4.24441 67.8354L15.3706 63.3401ZM91.7556 28.1646L93.254 31.8733L82.1278 36.3686L80.6294 32.6598L91.7556 28.1646ZM13.9625 35.1845L15.5895 31.5303L4.62693 26.6494L2.99999 30.3036L13.9625 35.1845ZM92.3273 65.6963L90.7003 69.3505L79.7378 64.4696L81.3647 60.8154L92.3273 65.6963ZM21.2174 23.4935L24.0947 20.7148L15.7588 12.0828L12.8815 14.8614L21.2174 23.4935ZM82.446 81.1392L79.5687 83.9178L71.2328 75.2857L74.1101 72.5071L82.446 81.1392ZM32.3236 15.371L36.0323 13.8726L31.5371 2.74635L27.8283 4.24478L32.3236 15.371ZM67.4994 91.7559L63.7907 93.2543L59.2954 82.1281L63.0041 80.6297L67.4994 91.7559ZM47 73C61.3594 73 73 61.3594 73 47C73 32.6406 61.3594 21 47 21C32.6406 21 21 32.6406 21 47C21 61.3594 32.6406 73 47 73Z" fill="#CCF1D6"/>
<path fill-rule="evenodd" clip-rule="evenodd" d="M26 53V59.1307H39.7392C40.4227 59.1307 41.061 59.4725 41.4399 60.0414L49 71.3916L41.4399 82.7418C41.061 83.3107 40.4227 83.6524 39.7392 83.6524H26V100H23V83.6524H1.90822C1.09235 83.6524 0.605567 82.7433 1.05785 82.0643L8.16669 71.3916L1.05785 60.7188C0.605567 60.0398 1.09235 59.1307 1.90822 59.1307H23V53C23 52.1716 23.6716 51.5 24.5 51.5C25.3284 51.5 26 52.1716 26 53ZM5.60282 62.1307L11.7713 71.3916L5.60282 80.6524H39.227L45.3955 71.3916L39.227 62.1307H5.60282Z" fill="#262626"/>
<path fill-rule="evenodd" clip-rule="evenodd" d="M73 3H63C62.4477 3 62 3.44772 62 4V9H74V4C74 3.44772 73.5523 3 73 3ZM59 4V9H42C40.8954 9 40 9.89543 40 11V26C40 27.6569 41.3431 29 43 29L43 43C43 44.6569 44.3431 46 46 46H90C91.6569 46 93 44.6569 93 43V29C94.6569 29 96 27.6569 96 26V11C96 9.89543 95.1046 9 94 9H77V4C77 1.79086 75.2091 0 73 0H63C60.7909 0 59 1.79086 59 4ZM59 12H77H93V26H92H69.5V23C69.5 22.1716 68.8284 21.5 68 21.5C67.1716 21.5 66.5 22.1716 66.5 23V26H44H43L43 12H59ZM66.5 29H46V43H90V29H69.5V31C69.5 31.8284 68.8284 32.5 68 32.5C67.1716 32.5 66.5 31.8284 66.5 31V29Z" fill="#262626"/>
</g>
<defs>
<clipPath id="clip0_5085_99244">
<rect width="96" height="96" fill="white"/>
</clipPath>
</defs>
</svg>
