<?xml version="1.0" encoding="UTF-8"?>
<svg width="25px" height="24px" viewBox="0 0 25 24" version="1.1" xmlns="http://www.w3.org/2000/svg" xmlns:xlink="http://www.w3.org/1999/xlink">
    <!-- Generator: Sketch 43.2 (39069) - http://www.bohemiancoding.com/sketch -->
    <title>Dialog_regular</title>
    <desc>Created with Sketch.</desc>
    <defs></defs>
    <g id="Design-bruker-eksterneflater" stroke="none" stroke-width="1" fill="none" fill-rule="evenodd" stroke-linejoin="round">
        <g id="FO_Aktivitetsplan_Stylguide" transform="translate(-65.000000, -5083.000000)" stroke="#3E3832">
            <g id="Dialog_regular" transform="translate(66.000000, 5084.000000)">
                <path d="M6.94,13.814 C6.451,13.748 5.968,13.644 5.5,13.5 L0.5,15.5 L2.5,12 C0.926,10.741 0,8.875 0,6.936 C0,3.106 3.805,0 8.5,0 C13.194,0 17,3.106 17,6.936" id="Stroke-115"></path>
                <path d="M9,15 C9,19.288 14,22.5 18.5,20.5 L22.5,22 L21,19 C22.296,17.963 23,16.598 23,15 C23,11.846 19.866,9 16,9 C12.134,9 9,11.846 9,15 L9,15 L9,15 Z" id="Stroke-117"></path>
            </g>
        </g>
    </g>
</svg>