<svg width="16" height="20" xmlns="http://www.w3.org/2000/svg" xmlns:xlink="http://www.w3.org/1999/xlink">
    <defs>
        <path
            d="M8 0c3.01619 0 5.48285 2.49638 5.59595 5.60991l.00405.22342v.83334h1.6c.40763 0 .74437.3181.79376.72885L16 7.5v11.66667c0 .42461-.30538.77538-.6997.82683L15.2 20H.8c-.40763 0-.74437-.3181-.79376-.72885L0 19.16667V7.5c0-.42462.30538-.77538.6997-.82684L.8 6.66666h1.6v-.83333C2.4 2.61667 4.912 0 8 0zm6.4 8.33333H1.6v10h12.8v-10zM8 10c.8816 0 1.6.74667 1.6 1.66667 0 .60833-.3312 1.12-.8 1.41166v2.755c0 .46-.3584.83334-.8.83334-.4416 0-.8-.37334-.8-.83334v-2.755c-.4688-.29166-.8-.80333-.8-1.41166C6.4 10.74667 7.1184 10 8 10zm0-8.33333c-2.13799 0-3.89082 1.75681-3.9951 3.95895L4 5.83333v.83334h8v-.83334c0-2.29833-1.7952-4.16666-4-4.16666z"
            id="a">
        </path>
    </defs>
    <use fill="#78706A" xlink:href="#a" fill-rule="evenodd"/>
</svg>
