<svg width="28" height="57" xmlns="http://www.w3.org/2000/svg"><g fill="none" fill-rule="evenodd"><path fill="#E1D0B5" d="M6.663 18.487l-3.58-5.859-1.702 6.655 2.856.32z"/><path fill="#E9C263" d="M9.686 50.768l1.762-.267-4.706-31.48-1.761.264z"/><path fill="#DAB25B" d="M3.221 19.552L7.925 51.03l1.76-.262-4.704-31.483z"/><path fill="#E9C263" d="M7.925 51.03L3.22 19.552l-1.764.264 4.708 31.478zM6.028 18.196c-.33.05-.49.509-.928.573a.555.555 0 0 1-.197-.008l.078.524 1.76-.264-.073-.489s-.306-.385-.64-.336"/><path d="M4.903 18.761c-.304-.067-.48-.39-.947-.323-.469.072-.54.433-.813.59l.078.524 1.76-.267-.078-.524z" fill="#DAB25B"/><path d="M3.143 19.028a.528.528 0 0 1-.185.062c-.443.066-.727-.32-1.06-.27-.33.046-.51.508-.51.508l.069.488 1.764-.264-.078-.524z" fill="#E9C263"/><path fill="#535756" d="M3.087 12.628l-.603 2.355 1.867-.28z"/><path d="M16.842 37.333l5.273 1.226c.44.1.72.544.612.99l-.707 3.076a.826.826 0 0 1-.987.619l-5.272-1.226a.829.829 0 0 1-.617-.99l.712-3.077a.818.818 0 0 1 .986-.618" fill="#C52B34"/><path fill="#E1D0B5" d="M27.31 7.43L25.592.78 22.03 6.64l2.64 1.145z"/><path fill="#B0C9C8" d="M20.816 39.188l1.76.262 4.655-31.489-1.76-.262z"/><path fill="#97B4B3" d="M23.708 7.437l-4.655 31.489 1.763.262L25.47 7.701z"/><path fill="#B0C9C8" d="M19.053 38.926L23.71 7.437l-1.764-.262-4.655 31.49zm7.737-31.96c-.33-.051-.618.339-1.06.273a.485.485 0 0 1-.182-.064l-.077.524 1.76.262.074-.488s-.184-.457-.514-.507"/><path d="M25.546 7.175c-.27-.152-.341-.516-.81-.585-.471-.07-.646.256-.947.325l-.08.524 1.761.26.076-.524z" fill="#97B4B3"/><path d="M23.787 6.915a.494.494 0 0 1-.193.004c-.444-.065-.602-.517-.935-.571-.334-.047-.639.338-.639.338l-.074.491 1.764.26.077-.522z" fill="#B0C9C8"/><path fill="#535756" d="M25.591.78l-1.26 2.075 1.868.28zM15.807 38.16l6.874 1.597-.217.941-6.873-1.6z"/><path fill="#E1D0B5" d="M18.564 24.517l-2.392-6.437-2.944 6.2 2.743.864z"/><path fill="#97AA47" d="M16.092 41.138l1.78.076.667-16.16-1.778-.078z"/><path fill="#727C31" d="M14.983 24.898l-.667 16.159 1.776.08.67-16.16z"/><path fill="#97AA47" d="M14.313 41.057l.668-16.159-1.777-.081-.669 16.164zm3.686-16.947c-.335-.016-.578.402-1.025.38a.565.565 0 0 1-.19-.042l-.025.528 1.78.079.025-.493s-.23-.44-.565-.453"/><path d="M16.784 24.447c-.288-.128-.396-.477-.87-.497-.473-.02-.613.32-.909.416l-.021.534 1.778.076.022-.529z" fill="#727C31"/><path d="M15.005 24.367a.484.484 0 0 1-.191.03c-.449-.019-.655-.46-.99-.471-.337-.014-.6.399-.6.399l-.02.492 1.78.083.021-.533z" fill="#97AA47"/><path fill="#535756" d="M16.172 18.08l-1.044 2.194 1.893.084z"/><path fill="#4F808A" mask="url(#d)" d="M24.283.636H0l2.91 25.11h18.457z" transform="translate(0 32.875)"/></g></svg>