<svg xmlns="http://www.w3.org/2000/svg" width="20" height="19" viewBox="0 0 20 19">
    <g fill="none" fill-rule="evenodd">
        <path fill="#005B82" d="M17.917 5H2.083C.934 5 0 5.935 0 7.083v5c0 1.149.934 2.084 2.083 2.084h2.084v3.75c0 .23.186.416.416.416h10.834c.229 0 .416-.186.416-.416v-3.75h2.084A2.086 2.086 0 0 0 20 12.083v-5A2.086 2.086 0 0 0 17.917 5zM15.417 4.167c.229 0 .416-.187.416-.417V.417a.42.42 0 0 0-.121-.295.42.42 0 0 0-.295-.122H4.583a.417.417 0 0 0-.416.417V3.75c0 .23.186.417.416.417h10.834z"/>
        <path fill="#000" d="M6.25 13.333h7.5a.417.417 0 0 0 0-.833h-7.5a.417.417 0 0 0 0 .833M6.25 15h7.5a.417.417 0 0 0 0-.833h-7.5a.417.417 0 0 0 0 .833M6.25 16.667h7.5a.417.417 0 0 0 0-.834h-7.5a.417.417 0 0 0 0 .834"/>
        <path fill="#FFF" d="M5 11.667h10V17.5H5z"/>
    </g>
</svg>
